<svg xmlns="http://www.w3.org/2000/svg" xmlns:xlink="http://www.w3.org/1999/xlink" width="500" zoomAndPan="magnify" viewBox="0 0 375 374.999991" height="500" preserveAspectRatio="xMidYMid meet" version="1.0"><defs><clipPath id="53cfbe7d69"><path d="M 9 127 L 365.929688 127 L 365.929688 242 L 9 242 Z M 9 127 " clip-rule="nonzero"/></clipPath><clipPath id="e1b9be5dd8"><path d="M 80 139 L 340 139 L 340 254.96875 L 80 254.96875 Z M 80 139 " clip-rule="nonzero"/></clipPath></defs><g clip-path="url(#53cfbe7d69)"><path fill="#f7f8f6" d="M 365.566406 241.800781 L 10.074219 241.800781 C 8.960938 236.964844 12.503906 226.410156 15.46875 223.5 C 19.351562 219.652344 25.039062 218.238281 29.945312 219.757812 C 31.996094 209.691406 40.011719 201.183594 50.429688 199.3125 C 54.949219 198.5 59.46875 199.132812 63.601562 200.828125 C 63.636719 189.707031 65.472656 178.652344 69.851562 168.238281 C 82.035156 139.175781 113.394531 120.140625 144.613281 129.5 C 173.535156 138.152344 190.203125 165.730469 191.332031 194.472656 C 197.550781 188.117188 206.34375 184.867188 215.558594 188.753906 C 216.40625 189.105469 217.21875 189.53125 217.960938 190.023438 C 222.976562 175.863281 234.699219 164.421875 250.449219 161.316406 C 271.390625 157.21875 292.472656 170.847656 296.886719 191.472656 C 305.648438 188.117188 315.992188 189.777344 322.632812 197.015625 C 325.847656 200.523438 327.578125 204.925781 328.089844 209.488281 C 335.277344 205.714844 345.074219 206.230469 352.234375 209.507812 C 357.46875 211.90625 361.90625 216.230469 363.941406 221.671875 C 364.9375 224.324219 365.398438 227.085938 365.289062 229.914062 C 365.242188 231.179688 365.097656 232.425781 364.777344 233.65625 C 364.429688 234.976562 363.8125 236.128906 363.328125 237.359375 C 365.257812 237.769531 365.996094 239.976562 365.566406 241.800781 Z M 365.566406 241.800781 " fill-opacity="1" fill-rule="nonzero"/></g><g clip-path="url(#e1b9be5dd8)"><path fill="#d9d9d9" d="M 336.601562 248.71875 C 332.710938 243.859375 326.410156 242.976562 320.484375 243.632812 C 325.484375 234.492188 324.664062 222.609375 318.449219 214.113281 C 310.644531 203.40625 296.992188 198.878906 284.148438 200.710938 C 277.183594 201.675781 270.679688 204.457031 264.839844 208.246094 C 263.644531 203.261719 260.515625 198.894531 255.859375 196.425781 C 253.035156 194.925781 249.90625 194.367188 246.820312 194.578125 C 249.886719 186.980469 250.914062 178.78125 248.242188 170.53125 C 244.511719 158.941406 235.398438 149.699219 224.441406 144.628906 C 202.65625 134.5625 175.9375 141.253906 162.386719 161.246094 C 155.71875 171.109375 152.464844 183.191406 153.675781 195.027344 C 147.484375 194.164062 141.660156 197.621094 139.226562 202.972656 C 131.671875 195.070312 120.945312 190.789062 110.21875 196.917969 C 96.175781 204.949219 94.386719 221.875 95.988281 236.535156 C 91.5625 234.472656 86.339844 233.4375 82.632812 237.289062 C 77.933594 242.1875 81.105469 249.746094 84.175781 254.585938 C 84.234375 254.679688 84.320312 254.730469 84.386719 254.804688 L 339.265625 254.804688 C 338.925781 252.609375 338.019531 250.472656 336.601562 248.71875 Z M 194.769531 207.253906 C 193.4375 198.808594 182.152344 196.273438 175.199219 198.378906 C 167.871094 200.597656 162.917969 207.679688 162.453125 215.175781 C 162.367188 216.453125 160.5625 216.957031 159.960938 215.742188 C 159.316406 214.4375 157.660156 213.640625 156.261719 214.292969 C 154.558594 215.082031 154.574219 217.355469 155.59375 218.652344 C 156.652344 220 154.449219 221.382812 153.386719 220.101562 C 151.429688 217.742188 152.023438 213.742188 154.6875 212.15625 C 156.425781 211.113281 158.542969 211.292969 160.179688 212.273438 C 161.691406 204.523438 167.285156 197.816406 175.070312 195.679688 C 183.371094 193.410156 195.710938 197.019531 197.339844 206.671875 C 197.617188 208.339844 195.03125 208.933594 194.769531 207.253906 Z M 276.253906 235.644531 C 275.589844 235.703125 274.8125 235.167969 274.8125 234.457031 C 274.800781 233.558594 274.515625 232.703125 273.910156 232.023438 C 273.300781 231.320312 272.597656 230.945312 271.886719 230.808594 C 271.800781 230.792969 271.714844 230.777344 271.628906 230.769531 C 271.605469 230.769531 271.394531 230.757812 271.386719 230.757812 C 271.179688 230.757812 270.984375 230.777344 270.792969 230.800781 C 270.75 230.808594 270.570312 230.84375 270.5625 230.84375 C 270.453125 230.871094 270.351562 230.902344 270.25 230.9375 C 270.148438 230.972656 270.046875 231.003906 269.941406 231.046875 C 269.933594 231.046875 269.765625 231.132812 269.730469 231.148438 C 269.375 231.335938 269.035156 231.554688 268.746094 231.84375 C 268.644531 231.9375 268.5625 232.046875 268.46875 232.148438 C 268.433594 232.183594 268.417969 232.199219 268.398438 232.210938 C 268.398438 232.21875 268.390625 232.226562 268.382812 232.25 C 268.1875 232.523438 268.027344 232.792969 267.925781 233.109375 C 267.6875 233.785156 266.925781 234.160156 266.246094 233.921875 C 265.609375 233.703125 265.144531 232.90625 265.421875 232.25 C 266.035156 230.828125 266.949219 229.640625 268.339844 228.902344 C 269.585938 228.25 270.976562 227.96875 272.367188 228.214844 C 275.167969 228.707031 277.398438 231.378906 277.429688 234.203125 C 277.4375 234.914062 277.015625 235.566406 276.253906 235.644531 Z M 276.253906 235.644531 " fill-opacity="1" fill-rule="nonzero"/></g></svg>